<svg xmlns="http://www.w3.org/2000/svg" xmlns:xlink="http://www.w3.org/1999/xlink" id="Layer_1" data-name="Layer 1" viewBox="0 0 547 377.21"><defs><style>.cls-1{fill:#315697;}.cls-2{fill:#f7b844;}.cls-3{fill:#ebc753;}.cls-4{fill:url(#linear-gradient);}.cls-5{fill:url(#linear-gradient-2);}.cls-6{fill:url(#linear-gradient-3);}.cls-7{fill:url(#linear-gradient-4);}.cls-8{fill:url(#linear-gradient-5);}.cls-9{fill:url(#linear-gradient-6);}.cls-10{fill:url(#linear-gradient-7);}.cls-11{fill:url(#linear-gradient-8);}.cls-12{fill:url(#linear-gradient-11);}.cls-13{fill:url(#linear-gradient-13);}.cls-14{fill:url(#linear-gradient-14);}</style><linearGradient id="linear-gradient" x1="295.24" y1="312.94" x2="501.64" y2="258.95" gradientUnits="userSpaceOnUse"><stop offset="0" stop-color="#b07912"></stop><stop offset="0.46" stop-color="#f3db76"></stop><stop offset="0.58" stop-color="#dfbe58"></stop><stop offset="0.76" stop-color="#c59832"></stop><stop offset="0.91" stop-color="#b6811b"></stop><stop offset="1" stop-color="#b07912"></stop></linearGradient><linearGradient id="linear-gradient-2" x1="300.89" y1="334.54" x2="507.29" y2="280.56" xlink:href="#linear-gradient"></linearGradient><linearGradient id="linear-gradient-3" x1="297.51" y1="338.67" x2="509.14" y2="283.32" xlink:href="#linear-gradient"></linearGradient><linearGradient id="linear-gradient-4" x1="300.77" y1="334.09" x2="507.17" y2="280.11" xlink:href="#linear-gradient"></linearGradient><linearGradient id="linear-gradient-5" x1="295.97" y1="315.74" x2="502.37" y2="261.76" xlink:href="#linear-gradient"></linearGradient><linearGradient id="linear-gradient-6" x1="290.77" y1="295.84" x2="497.17" y2="241.86" xlink:href="#linear-gradient"></linearGradient><linearGradient id="linear-gradient-7" x1="290.17" y1="293.56" x2="496.57" y2="239.58" xlink:href="#linear-gradient"></linearGradient><linearGradient id="linear-gradient-8" x1="297.79" y1="322.71" x2="504.19" y2="268.73" xlink:href="#linear-gradient"></linearGradient><linearGradient id="linear-gradient-11" x1="299.23" y1="328.22" x2="505.63" y2="274.24" xlink:href="#linear-gradient"></linearGradient><linearGradient id="linear-gradient-13" x1="301.38" y1="336.44" x2="507.78" y2="282.46" xlink:href="#linear-gradient"></linearGradient><linearGradient id="linear-gradient-14" x1="302.21" y1="339.61" x2="508.61" y2="285.63" xlink:href="#linear-gradient"></linearGradient></defs><path class="cls-1" d="M524.84,79.21v223c-2,1.36-1.62,3.72-2.2,5.58-7.59,24.24-24.42,37.44-49,41.5H72C56.48,346.1,43.39,339,33.57,326.19c-6.15-8-8.54-17.47-11.41-26.8V77.82c1.07-.75,1-1.95,1.25-3.06A58.08,58.08,0,0,1,46.79,38.62c8-5.83,17.33-8.13,26.61-10.65H473.6a15.62,15.62,0,0,0,2.56,1C503.12,34.16,519.87,51.44,524.84,79.21Zm-251.25,259v0H468.06c24.63,0,45.69-20.67,45.71-45.24q.11-104.14,0-208.31a42,42,0,0,0-4.73-19.29C499.41,46.51,483.25,39,462.63,39q-188.94.11-377.88,0c-32.31,0-51.47,19.32-51.49,51.78q0,68.51,0,137c0,21.68-.27,43.38.14,65.05a46.27,46.27,0,0,0,46.41,45.3Q176.7,338.15,273.59,338.22Z"></path><path class="cls-1" d="M292.29,197.48V302c0,13.93-9.72,23.76-23.82,23.84-18.92.1-37.84,0-56.76,0-45,0-90-.61-134.95.28-19.6.39-30.07-14.35-29.85-30.2.52-36.44.16-72.89.16-109.34,0-30.69.44-61.38-.16-92.05-.31-15.75,9.48-31.07,30.82-30.84,61.82.68,123.65.23,185.47.25,18.84,0,29.09,10.26,29.09,29Q292.31,145.23,292.29,197.48Zm-5.53-.27q0-50.88,0-101.75C286.74,78.68,277,69,260,68.94c-9.92,0-19.84,0-29.76,0q-74.74,0-149.5,0c-9.28,0-17.35,2.28-23.15,10-4.25,5.65-4.93,12.23-4.93,19q.06,96.9,0,193.8c0,20.44,9.06,29.36,29.74,29.36h162c6.46,0,12.92.14,19.38,0,14.26-.35,23-9.35,23-23.51Z"></path><path class="cls-1" d="M184.25,102.83c20,0,39.13-.93,58.17.25,20.87,1.3,35,16,38,36.71,3.79,26.33-5.14,43.21-29.92,54.89,1.87,1.66,3.54,3,5.09,4.52,19.2,18.5,20.15,62.36-10.9,79.68a49,49,0,0,1-23.82,6.32c-24.68.16-49.37.07-74,.05a15.89,15.89,0,0,1-2.79-.66C157.44,224.11,170.79,163.69,184.25,102.83ZM179,260.74c12.27,1.82,23.81,1.63,35.3-1.27,6.61-1.67,12.57-4.43,17.25-9.56,12.23-13.37,8-35.53-8-40.59-10.7-3.38-21.72-1.66-32.81-1.49C186.75,225.55,183,242.59,179,260.74ZM207.22,128c-4,18.19-7.8,35.61-11.74,53.59,6.25.33,11.53,1,16.78.82C222.65,182,233,181,242.15,175.3c10.17-6.31,15-18.74,11.94-30.73-2.54-10.09-9.84-15.68-22.76-16.52C223.56,127.54,215.73,128,207.22,128Z"></path><path class="cls-1" d="M115.93,216.32c-8.6-1.53-17.23-3-25.26-6.69C71.93,201,60.26,186.93,57.8,166.08c-2.49-21.2,6.84-37,23.4-49.1,11.6-8.47,24.89-12.89,39.12-14.1,6.82-.59,13.74-1.18,20.62-.19l-5,24.74c-10.61.19-21.11,1-30.94,5.55-10.58,4.92-18.74,12.08-19.81,24.39-1,11.95,5.39,20.4,14.54,27.23,6.61,5,14.34,7.08,22.1,9.19C119.94,201.32,119.39,209.2,115.93,216.32Z"></path><path class="cls-2" d="M115.93,216.32c3.46-7.12,4-15,5.92-22.53h28.27c-6.88,31-13.47,60.8-20.22,91.22a217.08,217.08,0,0,1-26.61.08c-1.83-3.68-.61-6.53,0-9.41q6.26-27.65,12.47-55.31A21,21,0,0,0,115.93,216.32Z"></path><path class="cls-2" d="M136,127.43l5-24.74H169.3c-1.86,8.91-2.79,16.81-5.56,24.74Z"></path><path class="cls-1" d="M318.48,83.18c.52-2.44,2.35-2.68,3.74-3.27,35.25-15.06,71.74-24,110.36-21.51,17.93,1.15,35.29,4.93,49.95,16.15,16.87,12.9,22,33.57,14.09,55.55-6.5,18-18.55,31.55-34.87,41.55,3-3.21,6.08-6.31,8.9-9.66,13.8-16.45,11.93-30.45-5.81-42.41-13.38-9-28.47-14.08-43.86-18.31-30.31-8.35-61.33-12.83-92.46-16.66C325.18,84.2,321.85,83.66,318.48,83.18Z"></path><path class="cls-3" d="M344,123c2.33,2.47,0,4.73-.48,7-2.1,9.42.33,16.16,8.33,21.47,8.69,5.76,18.73,7.56,28.73,9.2,19.33,3.18,39,4,58.13,8.46,5.13,1.18,11.12,1.41,14.67,8A193.32,193.32,0,0,1,399,201.83c-3.91-3.53-3.91-3.53-6.07-9.45-7.17,1.23-14.76,1.19-20.92,6.5-.72,1.87-1.46,3.79-2.15,5.56-12.57,3.72-37.34-5.38-43.54-25.06-5.75-18.24,1.63-44.53,16.61-57.43Z"></path><path class="cls-1" d="M424.36,223.5c3.11,2.83-.24,7.46,3.72,9.62,4.15-.22,3.5-3.47,3.52-6.05.08-10.12,0-20.24,0-30.69,7.75-3,15.49-4.73,22.95-6.64,3.23,2.74-.28,7.45,4.05,9.67,5.68-1.64,1.89-7.11,4.87-11.64l22.1-6.05c4.31,13.52,1.47,18.8-11.39,22.1-5.55,1.42-11.09,2.88-16.76,4.35-1.79,7.35,0,14.55-1.42,23.32C440.78,240.9,422.4,243.1,404.58,247c-4.11-2.09-3.23-5.9-4.28-9.19-5.58.75-10.82,3.44-16.52,3.34-1.83-2-1.1-3.95-.41-6.67C397.45,232.47,410.63,226.5,424.36,223.5Z"></path><path class="cls-1" d="M340.8,235.89c-.92-5.26-.33-9.8-.18-14.75,7.32-2.84,14.95-4.07,22.42-5.88,3.07,2.46.1,6.79,4.11,9.39,6.26-2.38,3-8.27,3.47-12.48.53-4.75-.64-9.62.5-15.09a110,110,0,0,1,22.31-6.3c3.67,8.46-1,17.64,3.56,25.83,6.54-2.9,2.35-8.77,5.18-13l22.71-5.47c4.19,12.18,1.35,18.18-10.25,21.36-20.4,5.61-40.85,11.06-61.29,16.57C349.32,237.16,345.29,237.66,340.8,235.89Z"></path><path class="cls-1" d="M437.94,257.32c-1.93,1-3.62,2.36-5.51,2.79-2.4.54-1.86,3.73-4.2,4-1.73-4-1.73-4-1.19-11.33,4.56-2.47,8-.93,10.82,3.41,2.59-3.74,5.5-6.11,9.94-3.79,2.86,1.48,3.41,4.18,3.05,7.06-.39,3.1-2.16,4.93-5.42,5.15C440.33,265,439.16,261.16,437.94,257.32Zm6.6,4.92c3.42-2.8,4.3-5,.66-7.54C442.08,257.92,442.08,257.92,444.54,262.24Z"></path><path class="cls-1" d="M340,264.13c1.91-4.81,2.68-8.84,5.45-12.46,3.84,2.7,3.57,7.61,6.68,10.84,2.38-3.24.81-7,2.4-10.4,2,3,.49,6.14,1.38,8.61,1,2.18,3.65.86,4.74,2.56-.8,2.5-9.27,1.23-14.31-2.11C343.92,260.58,343.31,263.67,340,264.13Z"></path><path class="cls-1" d="M476.92,211.26a9.09,9.09,0,0,1,.44,7c-4.6,1.26-9.22,3-14.08,3.24-2-2.07-1-4.07-1-6.45Z"></path><path class="cls-1" d="M367,245.53c-1.44-2.15-1.1-4.11-.27-6.46,4.54-1.43,9.24-3,14.06-3.46,2.39,1.81,1.47,3.81,1.18,5.94A37.41,37.41,0,0,1,367,245.53Z"></path><path class="cls-1" d="M463,253.48c-2.21,3.59,1.5,7-1.39,10.38-2.87,1.47-5.75,1.55-8.5-1.8-.57-2.34,2.95-5.08-.26-7.2C455.73,250.39,458.72,251.3,463,253.48Zm-6.28,6.43c.15,1.13.57,1.66,1.38,1.45a1.19,1.19,0,0,0,.56-1C458.41,259.64,457.76,259.51,456.74,259.91Z"></path><path class="cls-1" d="M381,255.52c1.6,2,4.46,0,5.56,2.47-1.21,2.44-4.71-.23-5.64,2.83,1.22,2.74,4.77.13,6.64,2.89-2.95,1.69-5.68.61-8.27.69-1.86-4-.91-7.62-.89-11.22l5-4,4.06,3.81C385.8,255.46,382.71,253,381,255.52Z"></path><path class="cls-1" d="M401.58,255c-2.51,3-1.84,6-.12,9.11-3.85-.06-3.82-4.62-7.35-4.41-1.92.22-.26,3.46-3,3.94a33.21,33.21,0,0,1-.22-11.08C394.64,251.24,398,250.92,401.58,255Zm-3.36.42c-2.12-2.17-3.57-2.24-5.35,0C394.7,257,396.17,257.12,398.22,255.45Z"></path><path class="cls-1" d="M412.7,261.29c1.58,1.91,4.63-.35,6.34,2.82a13.28,13.28,0,0,1-8.87-.37v-11a8.9,8.9,0,0,1,8.73.08c-1.47,2.6-4.8.14-5.94,2.76,1.05,2.13,4.1,0,5.16,2.3C417.26,260.65,412.63,257.37,412.7,261.29Z"></path><path class="cls-1" d="M477.38,252.28c3.15-.69,5.56-.93,8.26.18-.27,2.71-3.34.87-4.13,3.21.74,1.35,3.42-.19,4.17,1.57,0,3.58-4.37.46-4.8,3.26,1.05,2.54,4.67-.17,5.66,3.21-2.74,1.48-5.51,1-8.6.38C476.47,260.25,477.24,256.43,477.38,252.28Z"></path><path class="cls-1" d="M470,264.59c-2.91-4,.92-9.87-6.63-11.73,4.7-1.54,7.55-1.16,11.76-.69C469.84,255.18,472.28,260.31,470,264.59Z"></path><path class="cls-1" d="M366,262.83c-3.54-3.52-3.05-7.29.42-10.1,3.13-2.54,6.31-1.46,8.75,2-2.56,2-3.71-1.9-5.79-.76-3.46,1.66-3.26,4.49-2.33,7.56Z"></path><path class="cls-1" d="M404.88,252.41c2.39,3.84,2.28,7.69.32,11.57C403.46,260.19,404,256.3,404.88,252.41Z"></path><path class="cls-1" d="M367,261.52c1.73.53,3.46,1.23,5,.12.93-1.74-1.62-2.15-1.27-3.7,4.95-1.13,5.08,1.46,4.63,4.86-3.36,2.26-6.38,3.1-9.43,0Z"></path><path class="cls-3" d="M342.89,122c.53-.6,1.14-1.41,1.92-.5s0,1.29-.83,1.53Z"></path><path class="cls-4" d="M349.9,298.62v0s0,0,0,0v0Z"></path><path class="cls-5" d="M467.66,304.77V305a4.94,4.94,0,0,1-.9,3.43c-.91,1-2.41,1.05-3.75,1.05H436.57c-1.35,0-2.95-.12-3.65-1.28s.07-2.88,1.3-3.57a8,8,0,0,1,4.15-.64c2.13.06,4.26.11,6.4.2a5,5,0,0,0,2.51-.34,3.62,3.62,0,0,0,1.56-3.34c-.09-4-3.63-7.13-7.43-8.28-1.55-.47-3.36-.83-4.15-2.24-1-1.83.62-4.24,2.66-4.72s4.13.42,5.93,1.49c4.68,2.77,8.74,7.3,9.19,12.72.15,1.72.14,3.83,1.65,4.64,1.31.69,3-.19,3.71-1.48a8.62,8.62,0,0,0,.69-4.31l-.22-17.77a11.07,11.07,0,0,1,.39-3.81c.84-2.4,3.56-3.5,5.42-1.4,1.6,1.79,1.19,5.12,1.18,7.34Z"></path><path class="cls-6" d="M478.15,304.81V305c0,1.78-.4,4-2.11,4.5-1.87.52-3.39-1.57-4-3.42-2.15-7.05.14-14.68-.67-22-.23-2-.69-4.16-.11-6.14.89-3.08,5.6-4.64,7-1a8.36,8.36,0,0,1,.35,3.15Z"></path><path class="cls-7" d="M370.12,319.52c-2.59.73-4.71-3-3.3-5.36a3,3,0,0,1,3.57-1.34,3.31,3.31,0,0,1,1.79,1.93,3.73,3.73,0,0,1-1.05,4.26A3.1,3.1,0,0,1,370.12,319.52Z"></path><path class="cls-8" d="M443.23,278.17a2.83,2.83,0,0,1-1.32,2.46,3.12,3.12,0,1,1-3.55-5.14C440.7,273.86,443.18,276,443.23,278.17Z"></path><path class="cls-9" d="M361.76,278.2A2.6,2.6,0,0,1,359.7,281a3.33,3.33,0,0,1-3.9-1.9,3.16,3.16,0,0,1,1.7-3.94C359.72,274.33,361.6,276.29,361.76,278.2Z"></path><path class="cls-10" d="M352,280a3.2,3.2,0,1,1-4.21-4.64C350.87,273.5,353.76,277.58,352,280Z"></path><path class="cls-11" d="M430.13,305.37c.29-4.76.91-11.85-2.17-15.06a16.64,16.64,0,0,0-13.88-5,6.87,6.87,0,0,0-3.26,1.12,3.26,3.26,0,0,0-1.42,3c.06.34.18.68.21,1,.11,1.72-2,2.51-3.53,3.34a7.54,7.54,0,0,0-3.51,4.27,39.38,39.38,0,0,1-1.07,4.18c-.59,1.32-2,2.46-3.4,2-1.57-.55-1.82-2.64-1.79-4.31l.14-7.33a11.68,11.68,0,0,0-.47-4.37,4,4,0,0,0-3.2-2.69,3.79,3.79,0,0,0-3.36,2.06,8.46,8.46,0,0,0-.87,4c0,2.19.24,4.37.23,6.56A7.61,7.61,0,0,1,388,302a3.3,3.3,0,0,1-3.32,1.74c-2-.41-2.71-3-2.74-5.09s.19-4.33.22-6.49a9.18,9.18,0,0,0-.77-4.41,3.73,3.73,0,0,0-3.64-2.14,3.69,3.69,0,0,0-2.7,2.44,9,9,0,0,0-.37,3.76,38.35,38.35,0,0,1,.24,6.33,7.29,7.29,0,0,1-2.9,5.41c-2.19,1.41-5.05.95-7.59.41a1.63,1.63,0,0,1-1-.45,1.56,1.56,0,0,1-.27-.93c-.3-4.52,1-9.2-.43-13.51a2.91,2.91,0,0,0-3.21-2.39,17.49,17.49,0,0,0-12.59,4.87,23.13,23.13,0,0,0-6.52,12,7.63,7.63,0,0,0-.12,3.52,3.2,3.2,0,0,0,2.32,2.43,3.47,3.47,0,0,0,3.29-1.67,15.69,15.69,0,0,0,1.49-3.61,20.18,20.18,0,0,1,5.95-8.66c.86-.73,2.1-1.4,3-.77l0,10.05a5.53,5.53,0,0,0,.57,2.94c1,1.53,3.1,1.69,4.91,1.68l65.43-.26a2.87,2.87,0,0,0,2.26-.67,2.73,2.73,0,0,0,.49-1.78C430.07,306.34,430.1,305.87,430.13,305.37Zm-22.52-2.06a1.07,1.07,0,0,1-.16-.66l-.05-1.93a1.43,1.43,0,0,1,.14-.82,1.52,1.52,0,0,1,.89-.54,7.55,7.55,0,0,1,2.25-.44c1.74,0,2.63,1.52,2.7,3.15a2,2,0,0,1-1,1.92,2.62,2.62,0,0,1-1.18.14,14.08,14.08,0,0,1-3-.5A1,1,0,0,1,407.61,303.31Zm14,.13a1.53,1.53,0,0,1-1.41-.84,5.43,5.43,0,0,1-.47-1.83,12.48,12.48,0,0,0-4-7.25,10.54,10.54,0,0,1,3.64-1.12c4.95-.28,4.65,6.55,3.47,9.71a1.91,1.91,0,0,1-1.06,1.29Z"></path><path class="cls-4" d="M349.93,298.62v0s0,0,0,0v0Z"></path><path class="cls-4" d="M349.93,298.62v0s0,0,0,0v0Z"></path><path class="cls-12" d="M407.37,299.91v0s0,0,0,0,0,0,0-.05Z"></path><path class="cls-12" d="M407.37,299.91v0s0,0,0,0,0,0,0-.05Z"></path><path class="cls-13" d="M379.94,319.48c-2,.4-4.28-2.1-3.65-4.4a3.18,3.18,0,0,1,3-2.48,3.31,3.31,0,0,1,2.76,2.55,3.72,3.72,0,0,1-.44,3.2A2.65,2.65,0,0,1,379.94,319.48Z"></path><path class="cls-14" d="M393,319.43a3.06,3.06,0,0,1-2.4-.4,3.71,3.71,0,0,1,.63-6.22c3-1.23,5.22,3.42,3.44,5.6A3.1,3.1,0,0,1,393,319.43Z"></path></svg>